<svg aria-hidden="true" style="position: absolute; width: 0; height: 0; overflow: hidden;" version="1.1" xmlns="http://www.w3.org/2000/svg" xmlns:xlink="http://www.w3.org/1999/xlink">
<defs>
<symbol id="icon-tools" viewBox="0 0 31 32">
<path d="M0.211 5.646c-0.847 0.848-0.666 2.042 0.008 2.715 0.027 0.026 2.734 2.612 6.541 6.419 0.098 0.098 0.226 0.146 0.354 0.146s0.256-0.049 0.354-0.146c0.195-0.195 0.195-0.512 0-0.707-0.574-0.574-1.12-1.117-1.638-1.631l1.589-1.589c0.195-0.195 0.195-0.512 0-0.707s-0.512-0.195-0.707 0l-1.593 1.593c-0.891-0.88-1.676-1.648-2.315-2.271l3.615-3.615c0.195-0.195 0.195-0.512 0-0.707s-0.512-0.195-0.707 0l-3.626 3.626c-0.736-0.713-1.16-1.118-1.167-1.125-0.211-0.211-0.488-0.805 0-1.293l5-5c0.193-0.196 0.707-0.585 1.271-0.024 0.025 0.028 2.55 2.896 6.404 6.75 0.195 0.195 0.512 0.195 0.707 0s0.195-0.512 0-0.707c-3.83-3.829-6.336-6.675-6.382-6.727-0.932-0.93-2.056-0.651-2.707 0l-5.001 5zM21.419 24.146c-0.195-0.195-0.512-0.195-0.707 0l-1.591 1.59c-0.485-0.491-0.994-1.005-1.53-1.541-0.195-0.195-0.512-0.195-0.707 0s-0.195 0.512 0 0.707c3.704 3.703 6.291 6.469 6.328 6.509 0.343 0.344 0.813 0.533 1.323 0.533v0c0.525 0 1.056-0.205 1.385-0.535l4.998-5.057c0.629-0.629 0.665-1.696 0.078-2.285l-6.706-6.705c-0.195-0.195-0.512-0.195-0.707 0s-0.195 0.512 0 0.707l6.706 6.705c0.2 0.2 0.162 0.632-0.079 0.873l-4.999 5.057c-0.115 0.116-0.376 0.24-0.676 0.24 0 0 0 0 0 0-0.172 0-0.418-0.042-0.604-0.229-0.010-0.011-0.429-0.458-1.156-1.219l3.644-3.644c0.195-0.195 0.195-0.512 0-0.707s-0.512-0.195-0.707 0l-3.629 3.629c-0.624-0.649-1.389-1.438-2.26-2.326l1.596-1.596c0.195-0.194 0.195-0.51 0-0.706zM-0.293 31.829c0.096 0.098 0.225 0.15 0.358 0.15 0.048 0 0.096-0.007 0.143-0.021l10-2.979c0.081-0.024 0.153-0.067 0.212-0.127l17.090-17.205c0.024-0.024 0.036-0.055 0.054-0.082l3.656-3.656c0.294-0.295 0.457-0.686 0.457-1.103s-0.163-0.807-0.457-1.1l-5.235-5.234c-0.588-0.588-1.615-0.588-2.203 0l-3.739 3.739c-0.024 0.024-0.037 0.055-0.055 0.083l-17.116 17.117c-0.056 0.056-0.098 0.124-0.122 0.199l-3.16 9.715c-0.058 0.177-0.013 0.37 0.117 0.504zM20.425 5.271l1.039 1.039-15.523 15.565-1.727-0.392 16.211-16.212zM6.565 22.666l15.607-15.648 2.436 2.436-15.748 15.546h-2.295v-2.334zM26.449 11.296l-16.244 16.354-0.577-2.002 15.687-15.487 1.134 1.135zM3.558 22.359l2.007 0.456v2.685c0 0.276 0.224 0.5 0.5 0.5h2.624l0.634 2.2-8.488 2.529 2.723-8.37zM24.49 1.179c0.211-0.211 0.578-0.211 0.789 0l5.235 5.235c0.105 0.105 0.163 0.245 0.163 0.394 0 0.148-0.058 0.289-0.164 0.395l-3.371 3.372-6.023-6.023 3.371-3.373z"></path>
</symbol>
<symbol id="icon-lab1" viewBox="0 0 32 32">
<path d="M20.682 3.732c-0.473-0.472-1.1-0.732-1.768-0.732s-1.295 0.26-1.77 0.733l-1.41 1.412c-0.473 0.472-0.734 1.1-0.734 1.769 0 0.471 0.129 0.922 0.371 1.313l-13.577 5.439c-0.908 0.399-1.559 1.218-1.742 2.189-0.185 0.977 0.125 1.979 0.834 2.687l12.72 12.58c0.548 0.548 1.276 0.859 2.045 0.877 0.018 0.001 0.060 0.001 0.078 0.001 0.202 0 0.407-0.021 0.61-0.062 0.994-0.206 1.808-0.893 2.177-1.828l5.342-13.376c0.402 0.265 0.875 0.407 1.367 0.407 0.67 0 1.297-0.261 1.768-0.733l1.407-1.408c0.477-0.474 0.738-1.103 0.738-1.773s-0.262-1.3-0.732-1.768l-7.724-7.727zM16.659 29.367c-0.124 0.313-0.397 0.544-0.727 0.612-0.076 0.016-0.153 0.022-0.229 0.021-0.254-0.006-0.499-0.108-0.682-0.292l-12.728-12.588c-0.234-0.233-0.337-0.567-0.275-0.893 0.061-0.324 0.279-0.598 0.582-0.73l6.217-2.49c4.189 1.393 8.379 0.051 12.57 4.522l-4.728 11.838zM26.992 13.58l-1.414 1.413c-0.195 0.196-0.512 0.196-0.707 0l-1.768-1.767-1.432 3.589 0.119-0.303c-3.010-3.005-6.069-3.384-8.829-3.723-0.887-0.109-1.747-0.223-2.592-0.405l8.491-3.401-1.715-1.715c-0.195-0.195-0.195-0.512 0-0.707l1.414-1.415c0.195-0.195 0.512-0.195 0.707 0l7.725 7.727c0.198 0.195 0.198 0.512 0.001 0.707zM16.5 21c1.378 0 2.5-1.121 2.5-2.5s-1.121-2.5-2.5-2.5c-1.379 0-2.5 1.121-2.5 2.5s1.122 2.5 2.5 2.5zM16.5 17c0.828 0 1.5 0.672 1.5 1.5s-0.672 1.5-1.5 1.5c-0.829 0-1.5-0.672-1.5-1.5s0.671-1.5 1.5-1.5zM29.5 0c-1.379 0-2.5 1.121-2.5 2.5s1.121 2.5 2.5 2.5 2.5-1.121 2.5-2.5-1.121-2.5-2.5-2.5zM29.5 4c-0.828 0-1.5-0.672-1.5-1.5s0.672-1.5 1.5-1.5 1.5 0.672 1.5 1.5-0.672 1.5-1.5 1.5zM8 17c0 1.103 0.897 2 2 2s2-0.897 2-2-0.897-2-2-2-2 0.897-2 2zM10 16c0.552 0 1 0.447 1 1s-0.448 1-1 1-1-0.447-1-1 0.448-1 1-1zM12 23c0-0.552 0.448-1 1-1s1 0.448 1 1c0 0.552-0.448 1-1 1s-1-0.448-1-1zM28 8c0-0.552 0.448-1 1-1s1 0.448 1 1c0 0.552-0.448 1-1 1s-1-0.448-1-1z"></path>
</symbol>
</defs>
</svg>
